<?xml version="1.0" standalone="no"?>
<!DOCTYPE svg PUBLIC "-//W3C//DTD SVG 20010904//EN"
 "http://www.w3.org/TR/2001/REC-SVG-20010904/DTD/svg10.dtd">
<svg version="1.0" xmlns="http://www.w3.org/2000/svg"
 width="640.000000pt" height="196.000000pt" viewBox="0 0 640.000000 196.000000"
 preserveAspectRatio="xMidYMid meet">

<g transform="translate(0.000000,196.000000) scale(0.100000,-0.100000)"
fill="#000000" stroke="none">
<path d="M5405 1854 c-55 -29 -143 -67 -195 -85 -108 -36 -185 -41 -430 -25
-120 7 -147 6 -238 -13 -211 -44 -352 -116 -457 -234 -30 -34 -90 -114 -132
-177 l-78 -115 -213 -159 c-117 -87 -211 -160 -209 -162 1 -2 58 15 126 36 68
22 125 40 127 40 2 0 -38 -51 -89 -112 -51 -62 -102 -127 -114 -144 l-23 -32
53 -55 c81 -84 162 -116 219 -86 16 9 32 6 77 -14 31 -14 74 -29 95 -33 l39
-7 -41 58 c-23 32 -42 62 -42 66 0 17 32 16 80 -2 l51 -19 -7 50 -7 51 52 -20
53 -20 -7 49 c-6 42 -4 49 13 54 14 5 25 25 37 69 9 34 33 125 53 202 l37 139
80 56 c168 118 356 242 360 239 2 -2 -16 -46 -41 -96 -62 -129 -122 -192 -244
-251 -123 -61 -137 -84 -165 -269 l-7 -43 64 0 c49 0 76 -6 116 -26 90 -45
162 -159 162 -257 0 -38 -6 -48 -48 -90 -39 -39 -54 -47 -84 -47 -34 0 -37 -2
-40 -32 -3 -31 -6 -33 -45 -36 -39 -3 -42 -5 -45 -35 -3 -31 -5 -32 -45 -31
-25 0 -63 12 -93 27 l-52 27 7 -33 c4 -17 17 -52 29 -77 18 -38 31 -50 85 -77
35 -17 94 -39 131 -48 63 -15 69 -15 116 2 27 11 101 52 164 93 413 264 418
266 860 381 195 51 360 97 367 103 12 12 104 246 97 246 -3 0 -125 -31 -273
-70 -147 -38 -273 -70 -279 -70 -9 0 -12 29 -10 111 l3 112 330 86 330 87 49
122 c27 68 47 125 44 127 -3 3 -665 -168 -740 -191 -16 -5 -18 5 -18 109 l0
115 63 16 c34 10 228 61 432 114 l370 98 46 119 c46 118 50 139 26 130 -7 -3
-201 -55 -432 -115 -231 -61 -428 -113 -438 -116 -16 -5 -15 1 9 48 20 38 28
73 32 126 2 39 3 72 1 71 -2 -1 -49 -25 -104 -55z m-319 -662 c-3 -10 -16 -44
-29 -76 l-23 -59 -84 -23 c-47 -13 -88 -23 -92 -24 -8 0 41 131 54 145 7 8
136 48 171 54 5 0 6 -7 3 -17z m153 -210 c-12 -31 -27 -62 -33 -68 -11 -12
-167 -56 -173 -50 -3 3 45 134 53 144 7 10 170 48 172 40 2 -5 -6 -35 -19 -66z
m-240 -55 l-30 -73 -87 -21 c-48 -12 -88 -20 -89 -19 -5 4 48 130 58 141 11
11 160 53 171 48 3 -2 -7 -36 -23 -76z"/>
<path d="M413 1640 c-57 -12 -91 -31 -135 -77 -73 -75 -76 -87 -198 -733 -16
-85 -32 -168 -36 -183 l-6 -28 93 3 92 3 54 280 c29 154 56 286 58 293 3 8 26
12 69 12 71 0 71 0 82 80 l7 50 -67 0 c-75 0 -79 6 -47 76 27 60 66 87 117 81
l41 -4 20 68 c18 62 19 69 4 73 -38 11 -109 14 -148 6z"/>
<path d="M2583 1640 c-57 -12 -91 -31 -135 -77 -59 -61 -83 -129 -127 -358
-22 -115 -56 -293 -76 -395 -19 -102 -35 -186 -35 -187 0 -2 40 -3 89 -3 62 0
90 4 94 13 2 6 28 139 58 295 l54 282 85 0 86 0 32 -281 c28 -248 30 -283 18
-307 -19 -35 -90 -103 -143 -136 l-43 -26 37 -75 37 -74 35 21 c96 58 185 163
258 303 33 65 130 289 286 668 l16 37 -93 0 -92 0 -78 -242 c-43 -134 -79
-247 -81 -253 -2 -5 -4 46 -4 115 -1 69 -4 182 -8 253 l-6 127 -159 0 c-178 0
-174 -2 -139 76 27 60 66 87 117 81 l41 -4 20 68 c18 62 19 69 4 73 -38 11
-109 14 -148 6z"/>
<path d="M2127 1609 c-15 -11 -31 -38 -37 -60 -15 -53 11 -109 54 -121 36 -9
87 11 110 43 23 33 21 100 -5 133 -26 33 -84 36 -122 5z"/>
<path d="M1768 1508 l-87 -21 -11 -56 c-18 -91 -17 -90 -63 -93 -39 -3 -42 -5
-49 -43 -4 -22 -10 -50 -13 -62 -5 -21 -2 -23 35 -23 29 0 40 -4 40 -15 0 -8
-16 -98 -35 -199 -39 -208 -42 -253 -19 -303 29 -61 103 -90 200 -77 59 7 59
8 69 87 l7 57 -35 0 c-43 0 -67 22 -67 60 0 24 48 293 65 368 5 21 10 22 110
22 94 0 105 -2 105 -18 0 -9 -24 -140 -53 -290 -30 -150 -51 -274 -49 -277 8
-8 170 -6 176 3 5 8 136 682 136 700 0 9 -55 12 -199 12 l-199 0 13 63 c22
111 25 127 17 126 -4 0 -46 -10 -94 -21z"/>
<path d="M757 1339 c-188 -44 -328 -276 -315 -524 5 -88 30 -151 70 -177 69
-45 141 -29 216 48 l54 55 -3 -58 -3 -58 77 -3 c70 -3 77 -1 77 17 0 70 27
258 65 451 25 123 41 228 37 232 -23 23 -202 34 -275 17z m83 -134 c0 -29 -67
-312 -82 -348 -19 -44 -67 -97 -89 -97 -5 0 -18 9 -29 20 -55 55 5 321 91 401
23 22 41 29 70 29 21 0 39 -2 39 -5z"/>
<path d="M1260 1330 c-94 -32 -161 -126 -160 -227 1 -48 36 -110 99 -172 50
-50 61 -66 61 -93 0 -83 -73 -108 -181 -63 -13 5 -21 -6 -38 -56 -11 -34 -19
-65 -16 -69 11 -18 100 -32 172 -28 155 9 243 94 243 236 0 63 -23 109 -95
183 -73 76 -81 104 -40 145 23 23 33 25 78 22 29 -2 58 -6 66 -9 8 -2 17 11
26 38 28 94 29 90 -20 102 -64 16 -132 13 -195 -9z"/>
</g>
</svg>
